<?xml version="1.0" encoding="utf-8"?><svg viewBox="0 0 315 315" xmlns="http://www.w3.org/2000/svg" xmlns:xlink="http://www.w3.org/1999/xlink"><style>:root>svg{display:none}:root>svg:target{display:block}</style><svg viewBox="0 0 310 310" id="fb" xmlns="http://www.w3.org/2000/svg"><path d="M81.703 165.106h33.981V305a5 5 0 005 5H178.3a5 5 0 005-5V165.765h39.064a5 5 0 004.967-4.429l5.933-51.502a5 5 0 00-4.966-5.572h-44.996V71.978c0-9.732 5.24-14.667 15.576-14.667h29.42a5 5 0 005-5V5.037a5 5 0 00-5-5h-40.545A39.746 39.746 0 00185.896 0c-7.035 0-31.488 1.381-50.804 19.151-21.402 19.692-18.427 43.27-17.716 47.358v37.752H81.703a5 5 0 00-5 5v50.844a5 5 0 005 5.001z"/></svg><svg viewBox="0 0 315 315" id="go" xmlns="http://www.w3.org/2000/svg"><path d="M307.5 136.892h-19.791V117.1c0-4.143-3.357-7.5-7.5-7.5h-26.717a7.499 7.499 0 00-7.5 7.5v19.792h-19.791a7.499 7.499 0 00-7.5 7.5v26.717c0 4.143 3.357 7.5 7.5 7.5h19.791v19.792a7.5 7.5 0 007.5 7.5h26.717a7.5 7.5 0 007.5-7.5v-19.792H307.5c4.143 0 7.5-3.357 7.5-7.5v-26.717c0-4.143-3.357-7.5-7.5-7.5zM101.906 104.16c9.088 0 17.823 2.45 25.274 7.087l8.513 5.825a7.5 7.5 0 009.514-.861l24.828-24.596a7.5 7.5 0 00-1.037-11.514l-14.43-9.896a7.523 7.523 0 00-.922-.539l-13.979-6.902a7.33 7.33 0 00-.566-.252 102.259 102.259 0 00-37.708-7.165c-26.757 0-51.996 10.27-71.068 28.915C10.958 103.196.188 128.943.002 156.761c-.187 27.824 10.239 53.72 29.355 72.916 18.968 19.049 45.879 29.975 73.834 29.975 27.658 0 53.608-10.739 71.195-29.463 13.931-14.831 22.48-34.641 24.727-57.288.021-.215.034-.43.036-.645l.26-20.345a7.348 7.348 0 00-.09-1.257l-1.09-6.953a7.5 7.5 0 00-7.409-6.339h-86.672a7.5 7.5 0 00-7.5 7.5v29.982a7.5 7.5 0 007.5 7.5h44.186c-2.025 4.439-5.216 9.12-9.251 13.482-8.801 9.518-21.926 14.977-36.01 14.977-14.383 0-28.157-5.636-37.79-15.462-20.052-20.448-19.822-56.077.489-76.245 9.562-9.491 22.733-14.936 36.134-14.936z"/></svg><svg viewBox="0 0 310 310" id="in" xmlns="http://www.w3.org/2000/svg"><path d="M72.16 99.73H9.927a5 5 0 00-5 5v199.928a5 5 0 005 5H72.16a5 5 0 005-5V104.73a5 5 0 00-5-5zM41.066.341C18.422.341 0 18.743 0 41.362 0 63.991 18.422 82.4 41.066 82.4c22.626 0 41.033-18.41 41.033-41.038C82.1 18.743 63.692.341 41.066.341zm189.388 94.42c-24.995 0-43.472 10.745-54.679 22.954V104.73a5 5 0 00-5-5h-59.599a5 5 0 00-5 5v199.928a5 5 0 005 5h62.097a5 5 0 005-5V205.74c0-33.333 9.054-46.319 32.29-46.319 25.306 0 27.317 20.818 27.317 48.034v97.204a5 5 0 005 5H305a5 5 0 005-5V194.995c0-49.565-9.451-100.234-79.546-100.234z"/></svg><svg viewBox="0 0 31.418 31.418" id="ra" xmlns="http://www.w3.org/2000/svg"><path d="M26.586 15.708c0 .909-.41 1.766-1.117 2.335L9.715 30.753a3.003 3.003 0 01-3.177.372 3.003 3.003 0 01-1.706-2.707V3c0-1.154.664-2.208 1.706-2.707a3.004 3.004 0 013.178.372l15.755 12.709a2.996 2.996 0 011.115 2.334z"/></svg><svg viewBox="0 0 310 310" id="tw" xmlns="http://www.w3.org/2000/svg"><path d="M302.973 57.388a117.512 117.512 0 01-14.993 5.463 66.276 66.276 0 0013.494-23.73 5 5 0 00-7.313-5.824 117.994 117.994 0 01-34.878 13.783c-12.381-12.098-29.197-18.983-46.581-18.983-36.695 0-66.549 29.853-66.549 66.547 0 2.89.183 5.764.545 8.598C101.163 99.244 58.83 76.863 29.76 41.204a5.001 5.001 0 00-8.196.642c-5.896 10.117-9.013 21.688-9.013 33.461 0 16.035 5.725 31.249 15.838 43.137a56.37 56.37 0 01-8.907-3.977 5 5 0 00-7.427 4.257c-.007.295-.007.59-.007.889 0 23.935 12.882 45.484 32.577 57.229a57.372 57.372 0 01-5.063-.735 4.998 4.998 0 00-5.699 6.437c7.29 22.76 26.059 39.501 48.749 44.605-18.819 11.787-40.34 17.961-62.932 17.961a120.4 120.4 0 01-14.095-.826 5 5 0 00-3.286 9.174c29.023 18.609 62.582 28.445 97.047 28.445 67.754 0 110.139-31.95 133.764-58.753 29.46-33.421 46.356-77.658 46.356-121.367 0-1.826-.028-3.67-.084-5.508 11.623-8.757 21.63-19.355 29.773-31.536a5 5 0 00-6.182-7.351z"/></svg></svg>